<mxfile host="Electron" agent="Mozilla/5.0 (X11; Linux x86_64) AppleWebKit/537.36 (KHTML, like Gecko) draw.io/26.2.15 Chrome/134.0.6998.205 Electron/35.2.1 Safari/537.36" version="26.2.15">
  <diagram id="R2lEEEUBdFMjLlhIrx00" name="Page-1">
    <mxGraphModel dx="2066" dy="1235" grid="1" gridSize="10" guides="1" tooltips="1" connect="1" arrows="1" fold="1" page="1" pageScale="1" pageWidth="850" pageHeight="1100" math="0" shadow="0" extFonts="Permanent Marker^https://fonts.googleapis.com/css?family=Permanent+Marker">
      <root>
        <mxCell id="0" />
        <mxCell id="1" parent="0" />
        <mxCell id="uEUvTOfzPWWQZXxfegwx-2" value="&lt;u&gt;Product Data Broker (PDB) -&amp;gt; Actual data&lt;/u&gt;&lt;div&gt;&lt;u&gt;Metadata Broker -&amp;gt; which data ?&lt;/u&gt;&lt;/div&gt;" style="rounded=0;whiteSpace=wrap;html=1;" parent="1" vertex="1">
          <mxGeometry x="185" y="160" width="240" height="60" as="geometry" />
        </mxCell>
        <mxCell id="uEUvTOfzPWWQZXxfegwx-5" value="" style="endArrow=classic;html=1;rounded=0;exitX=0.25;exitY=0;exitDx=0;exitDy=0;entryX=0.575;entryY=1.133;entryDx=0;entryDy=0;entryPerimeter=0;" parent="1" source="uEUvTOfzPWWQZXxfegwx-2" target="uEUvTOfzPWWQZXxfegwx-6" edge="1">
          <mxGeometry width="50" height="50" relative="1" as="geometry">
            <mxPoint x="490" y="640" as="sourcePoint" />
            <mxPoint x="350" y="240" as="targetPoint" />
          </mxGeometry>
        </mxCell>
        <mxCell id="uEUvTOfzPWWQZXxfegwx-6" value="Individuals" style="text;html=1;align=center;verticalAlign=middle;resizable=0;points=[];autosize=1;strokeColor=none;fillColor=none;" parent="1" vertex="1">
          <mxGeometry x="150" y="20" width="80" height="30" as="geometry" />
        </mxCell>
        <mxCell id="uEUvTOfzPWWQZXxfegwx-7" value="Product Types" style="text;html=1;align=center;verticalAlign=middle;resizable=0;points=[];autosize=1;strokeColor=none;fillColor=none;" parent="1" vertex="1">
          <mxGeometry x="375" y="60" width="100" height="30" as="geometry" />
        </mxCell>
        <mxCell id="uEUvTOfzPWWQZXxfegwx-8" value="" style="endArrow=classic;html=1;rounded=0;exitX=0.75;exitY=0;exitDx=0;exitDy=0;entryX=0.43;entryY=1.067;entryDx=0;entryDy=0;entryPerimeter=0;" parent="1" source="uEUvTOfzPWWQZXxfegwx-2" target="uEUvTOfzPWWQZXxfegwx-7" edge="1">
          <mxGeometry width="50" height="50" relative="1" as="geometry">
            <mxPoint x="490" y="640" as="sourcePoint" />
            <mxPoint x="540" y="590" as="targetPoint" />
          </mxGeometry>
        </mxCell>
        <mxCell id="uEUvTOfzPWWQZXxfegwx-9" value="&lt;u&gt;Semantic Operability&lt;/u&gt;" style="text;html=1;align=center;verticalAlign=middle;resizable=0;points=[];autosize=1;strokeColor=none;fillColor=none;" parent="1" vertex="1">
          <mxGeometry x="40" y="328" width="130" height="30" as="geometry" />
        </mxCell>
        <mxCell id="uEUvTOfzPWWQZXxfegwx-10" value="" style="endArrow=classic;html=1;rounded=0;exitX=0;exitY=0.5;exitDx=0;exitDy=0;entryX=0.508;entryY=-0.067;entryDx=0;entryDy=0;entryPerimeter=0;" parent="1" source="uEUvTOfzPWWQZXxfegwx-2" target="uEUvTOfzPWWQZXxfegwx-9" edge="1">
          <mxGeometry width="50" height="50" relative="1" as="geometry">
            <mxPoint x="490" y="640" as="sourcePoint" />
            <mxPoint x="540" y="590" as="targetPoint" />
          </mxGeometry>
        </mxCell>
        <mxCell id="uEUvTOfzPWWQZXxfegwx-14" value="RDF&#39;s knowledge graph" style="text;html=1;align=center;verticalAlign=middle;resizable=0;points=[];autosize=1;strokeColor=none;fillColor=none;" parent="1" vertex="1">
          <mxGeometry y="473" width="150" height="30" as="geometry" />
        </mxCell>
        <mxCell id="uEUvTOfzPWWQZXxfegwx-15" value="" style="edgeStyle=none;orthogonalLoop=1;jettySize=auto;html=1;rounded=0;exitX=0.477;exitY=1.167;exitDx=0;exitDy=0;exitPerimeter=0;entryX=0.507;entryY=0.133;entryDx=0;entryDy=0;entryPerimeter=0;" parent="1" source="uEUvTOfzPWWQZXxfegwx-9" target="uEUvTOfzPWWQZXxfegwx-14" edge="1">
          <mxGeometry width="100" relative="1" as="geometry">
            <mxPoint x="160" y="460" as="sourcePoint" />
            <mxPoint x="260" y="460" as="targetPoint" />
            <Array as="points" />
          </mxGeometry>
        </mxCell>
        <mxCell id="uEUvTOfzPWWQZXxfegwx-17" value="" style="edgeStyle=none;orthogonalLoop=1;jettySize=auto;html=1;rounded=0;exitX=0.5;exitY=1.133;exitDx=0;exitDy=0;exitPerimeter=0;entryX=0;entryY=0;entryDx=0;entryDy=0;" parent="1" source="uEUvTOfzPWWQZXxfegwx-14" target="uEUvTOfzPWWQZXxfegwx-33" edge="1">
          <mxGeometry width="100" relative="1" as="geometry">
            <mxPoint x="150" y="640" as="sourcePoint" />
            <mxPoint x="160" y="690" as="targetPoint" />
            <Array as="points" />
          </mxGeometry>
        </mxCell>
        <mxCell id="uEUvTOfzPWWQZXxfegwx-18" value="Data Normalization &amp;amp;&lt;div&gt;Standardization&lt;/div&gt;" style="text;html=1;align=center;verticalAlign=middle;resizable=0;points=[];autosize=1;strokeColor=none;fillColor=none;" parent="1" vertex="1">
          <mxGeometry x="210" y="420" width="140" height="40" as="geometry" />
        </mxCell>
        <mxCell id="uEUvTOfzPWWQZXxfegwx-19" value="" style="edgeStyle=none;orthogonalLoop=1;jettySize=auto;html=1;rounded=0;exitX=0.977;exitY=0.933;exitDx=0;exitDy=0;exitPerimeter=0;entryX=0;entryY=0.6;entryDx=0;entryDy=0;entryPerimeter=0;" parent="1" source="uEUvTOfzPWWQZXxfegwx-9" target="uEUvTOfzPWWQZXxfegwx-18" edge="1">
          <mxGeometry width="100" relative="1" as="geometry">
            <mxPoint x="250" y="480" as="sourcePoint" />
            <mxPoint x="292" y="468" as="targetPoint" />
            <Array as="points" />
          </mxGeometry>
        </mxCell>
        <mxCell id="uEUvTOfzPWWQZXxfegwx-20" value="&lt;u&gt;Data&lt;/u&gt;" style="text;html=1;align=center;verticalAlign=middle;resizable=0;points=[];autosize=1;strokeColor=none;fillColor=none;" parent="1" vertex="1">
          <mxGeometry x="475" y="443" width="50" height="30" as="geometry" />
        </mxCell>
        <mxCell id="uEUvTOfzPWWQZXxfegwx-21" value="" style="edgeStyle=none;orthogonalLoop=1;jettySize=auto;html=1;rounded=0;exitX=0;exitY=0.267;exitDx=0;exitDy=0;exitPerimeter=0;entryX=1;entryY=0.475;entryDx=0;entryDy=0;entryPerimeter=0;" parent="1" source="uEUvTOfzPWWQZXxfegwx-20" target="uEUvTOfzPWWQZXxfegwx-18" edge="1">
          <mxGeometry width="100" relative="1" as="geometry">
            <mxPoint x="360" y="500" as="sourcePoint" />
            <mxPoint x="460" y="500" as="targetPoint" />
            <Array as="points" />
          </mxGeometry>
        </mxCell>
        <mxCell id="uEUvTOfzPWWQZXxfegwx-22" value="" style="edgeStyle=none;orthogonalLoop=1;jettySize=auto;html=1;rounded=0;exitX=0.5;exitY=1;exitDx=0;exitDy=0;entryX=0.52;entryY=-0.033;entryDx=0;entryDy=0;entryPerimeter=0;" parent="1" source="uEUvTOfzPWWQZXxfegwx-2" target="uEUvTOfzPWWQZXxfegwx-20" edge="1">
          <mxGeometry width="100" relative="1" as="geometry">
            <mxPoint x="470" y="400" as="sourcePoint" />
            <mxPoint x="570" y="400" as="targetPoint" />
            <Array as="points" />
          </mxGeometry>
        </mxCell>
        <mxCell id="uEUvTOfzPWWQZXxfegwx-23" value="ERP Systems" style="text;html=1;align=center;verticalAlign=middle;resizable=0;points=[];autosize=1;strokeColor=none;fillColor=none;" parent="1" vertex="1">
          <mxGeometry x="410" y="618" width="100" height="30" as="geometry" />
        </mxCell>
        <mxCell id="uEUvTOfzPWWQZXxfegwx-24" value="Odoo" style="text;html=1;align=center;verticalAlign=middle;resizable=0;points=[];autosize=1;strokeColor=none;fillColor=none;" parent="1" vertex="1">
          <mxGeometry x="405" y="708" width="50" height="30" as="geometry" />
        </mxCell>
        <mxCell id="uEUvTOfzPWWQZXxfegwx-25" value="" style="endArrow=classic;html=1;rounded=0;exitX=0.48;exitY=1.067;exitDx=0;exitDy=0;exitPerimeter=0;entryX=0.56;entryY=0.033;entryDx=0;entryDy=0;entryPerimeter=0;" parent="1" source="uEUvTOfzPWWQZXxfegwx-23" target="uEUvTOfzPWWQZXxfegwx-24" edge="1">
          <mxGeometry width="50" height="50" relative="1" as="geometry">
            <mxPoint x="480" y="400" as="sourcePoint" />
            <mxPoint x="530" y="350" as="targetPoint" />
          </mxGeometry>
        </mxCell>
        <mxCell id="uEUvTOfzPWWQZXxfegwx-26" value="" style="endArrow=classic;html=1;rounded=0;exitX=0.48;exitY=1;exitDx=0;exitDy=0;exitPerimeter=0;entryX=0.49;entryY=-0.067;entryDx=0;entryDy=0;entryPerimeter=0;" parent="1" source="uEUvTOfzPWWQZXxfegwx-20" target="uEUvTOfzPWWQZXxfegwx-23" edge="1">
          <mxGeometry width="50" height="50" relative="1" as="geometry">
            <mxPoint x="480" y="400" as="sourcePoint" />
            <mxPoint x="530" y="350" as="targetPoint" />
          </mxGeometry>
        </mxCell>
        <mxCell id="uEUvTOfzPWWQZXxfegwx-27" value="DPP Systems" style="text;html=1;align=center;verticalAlign=middle;resizable=0;points=[];autosize=1;strokeColor=none;fillColor=none;" parent="1" vertex="1">
          <mxGeometry x="240" y="550" width="100" height="30" as="geometry" />
        </mxCell>
        <mxCell id="uEUvTOfzPWWQZXxfegwx-28" value="" style="endArrow=classic;html=1;rounded=0;exitX=0.47;exitY=1;exitDx=0;exitDy=0;exitPerimeter=0;entryX=0.814;entryY=0.125;entryDx=0;entryDy=0;entryPerimeter=0;" parent="1" source="uEUvTOfzPWWQZXxfegwx-27" target="uEUvTOfzPWWQZXxfegwx-33" edge="1">
          <mxGeometry width="50" height="50" relative="1" as="geometry">
            <mxPoint x="480" y="400" as="sourcePoint" />
            <mxPoint x="205.0300000000002" y="687.99" as="targetPoint" />
          </mxGeometry>
        </mxCell>
        <mxCell id="uEUvTOfzPWWQZXxfegwx-31" value="" style="endArrow=classic;html=1;rounded=0;exitX=0.02;exitY=1;exitDx=0;exitDy=0;exitPerimeter=0;entryX=0.99;entryY=0.1;entryDx=0;entryDy=0;entryPerimeter=0;" parent="1" source="uEUvTOfzPWWQZXxfegwx-20" target="uEUvTOfzPWWQZXxfegwx-27" edge="1">
          <mxGeometry width="50" height="50" relative="1" as="geometry">
            <mxPoint x="480" y="400" as="sourcePoint" />
            <mxPoint x="530" y="350" as="targetPoint" />
          </mxGeometry>
        </mxCell>
        <mxCell id="uEUvTOfzPWWQZXxfegwx-33" value="&lt;span style=&quot;text-wrap-mode: nowrap;&quot;&gt;&lt;u&gt;Digital Product Passport (DPP)&lt;/u&gt;&lt;/span&gt;" style="ellipse;whiteSpace=wrap;html=1;" parent="1" vertex="1">
          <mxGeometry x="65" y="610" width="210" height="80" as="geometry" />
        </mxCell>
        <mxCell id="uEUvTOfzPWWQZXxfegwx-34" value="" style="edgeStyle=orthogonalEdgeStyle;rounded=0;orthogonalLoop=1;jettySize=auto;html=1;" parent="1" target="uEUvTOfzPWWQZXxfegwx-33" edge="1">
          <mxGeometry relative="1" as="geometry" />
        </mxCell>
        <mxCell id="uEUvTOfzPWWQZXxfegwx-35" value="Databases" style="text;html=1;align=center;verticalAlign=middle;resizable=0;points=[];autosize=1;strokeColor=none;fillColor=none;" parent="1" vertex="1">
          <mxGeometry x="565" y="540" width="80" height="30" as="geometry" />
        </mxCell>
        <mxCell id="uEUvTOfzPWWQZXxfegwx-36" value="SQL" style="text;html=1;align=center;verticalAlign=middle;resizable=0;points=[];autosize=1;strokeColor=none;fillColor=none;" parent="1" vertex="1">
          <mxGeometry x="555" y="648" width="50" height="30" as="geometry" />
        </mxCell>
        <mxCell id="uEUvTOfzPWWQZXxfegwx-37" value="PostgreSQL" style="text;html=1;align=center;verticalAlign=middle;resizable=0;points=[];autosize=1;strokeColor=none;fillColor=none;" parent="1" vertex="1">
          <mxGeometry x="515" y="718" width="90" height="30" as="geometry" />
        </mxCell>
        <mxCell id="uEUvTOfzPWWQZXxfegwx-38" value="" style="endArrow=classic;html=1;rounded=0;exitX=0.588;exitY=1.1;exitDx=0;exitDy=0;exitPerimeter=0;entryX=0.48;entryY=0.167;entryDx=0;entryDy=0;entryPerimeter=0;" parent="1" source="uEUvTOfzPWWQZXxfegwx-35" target="uEUvTOfzPWWQZXxfegwx-36" edge="1">
          <mxGeometry width="50" height="50" relative="1" as="geometry">
            <mxPoint x="480" y="400" as="sourcePoint" />
            <mxPoint x="530" y="350" as="targetPoint" />
          </mxGeometry>
        </mxCell>
        <mxCell id="uEUvTOfzPWWQZXxfegwx-39" value="" style="endArrow=classic;html=1;rounded=0;exitX=0.96;exitY=1.033;exitDx=0;exitDy=0;exitPerimeter=0;entryX=0.238;entryY=0.033;entryDx=0;entryDy=0;entryPerimeter=0;" parent="1" source="uEUvTOfzPWWQZXxfegwx-20" target="uEUvTOfzPWWQZXxfegwx-35" edge="1">
          <mxGeometry width="50" height="50" relative="1" as="geometry">
            <mxPoint x="480" y="400" as="sourcePoint" />
            <mxPoint x="530" y="350" as="targetPoint" />
          </mxGeometry>
        </mxCell>
        <mxCell id="uEUvTOfzPWWQZXxfegwx-40" value="" style="endArrow=classic;html=1;rounded=0;exitX=0.44;exitY=1.1;exitDx=0;exitDy=0;exitPerimeter=0;entryX=0.5;entryY=0.033;entryDx=0;entryDy=0;entryPerimeter=0;" parent="1" source="uEUvTOfzPWWQZXxfegwx-36" target="uEUvTOfzPWWQZXxfegwx-37" edge="1">
          <mxGeometry width="50" height="50" relative="1" as="geometry">
            <mxPoint x="480" y="400" as="sourcePoint" />
            <mxPoint x="530" y="350" as="targetPoint" />
          </mxGeometry>
        </mxCell>
        <mxCell id="uEUvTOfzPWWQZXxfegwx-41" value="NoSQL" style="text;html=1;align=center;verticalAlign=middle;resizable=0;points=[];autosize=1;strokeColor=none;fillColor=none;" parent="1" vertex="1">
          <mxGeometry x="610" y="648" width="60" height="30" as="geometry" />
        </mxCell>
        <mxCell id="uEUvTOfzPWWQZXxfegwx-42" value="Mongo" style="text;html=1;align=center;verticalAlign=middle;resizable=0;points=[];autosize=1;strokeColor=none;fillColor=none;" parent="1" vertex="1">
          <mxGeometry x="630" y="730" width="60" height="30" as="geometry" />
        </mxCell>
        <mxCell id="uEUvTOfzPWWQZXxfegwx-43" value="" style="endArrow=classic;html=1;rounded=0;exitX=0.55;exitY=1.033;exitDx=0;exitDy=0;exitPerimeter=0;entryX=0.383;entryY=0.033;entryDx=0;entryDy=0;entryPerimeter=0;" parent="1" source="uEUvTOfzPWWQZXxfegwx-41" target="uEUvTOfzPWWQZXxfegwx-42" edge="1">
          <mxGeometry width="50" height="50" relative="1" as="geometry">
            <mxPoint x="480" y="400" as="sourcePoint" />
            <mxPoint x="530" y="350" as="targetPoint" />
          </mxGeometry>
        </mxCell>
        <mxCell id="uEUvTOfzPWWQZXxfegwx-44" value="" style="endArrow=classic;html=1;rounded=0;exitX=0.613;exitY=1.067;exitDx=0;exitDy=0;exitPerimeter=0;entryX=0.45;entryY=0.067;entryDx=0;entryDy=0;entryPerimeter=0;" parent="1" source="uEUvTOfzPWWQZXxfegwx-35" target="uEUvTOfzPWWQZXxfegwx-41" edge="1">
          <mxGeometry width="50" height="50" relative="1" as="geometry">
            <mxPoint x="480" y="400" as="sourcePoint" />
            <mxPoint x="530" y="350" as="targetPoint" />
          </mxGeometry>
        </mxCell>
        <mxCell id="uEUvTOfzPWWQZXxfegwx-45" value="&lt;u&gt;Docker&lt;/u&gt;" style="text;html=1;align=center;verticalAlign=middle;whiteSpace=wrap;rounded=0;" parent="1" vertex="1">
          <mxGeometry x="710" y="443" width="60" height="30" as="geometry" />
        </mxCell>
        <mxCell id="uEUvTOfzPWWQZXxfegwx-46" value="" style="endArrow=classic;html=1;rounded=0;exitX=0.713;exitY=-0.067;exitDx=0;exitDy=0;exitPerimeter=0;entryX=0.5;entryY=1;entryDx=0;entryDy=0;" parent="1" source="uEUvTOfzPWWQZXxfegwx-35" target="uEUvTOfzPWWQZXxfegwx-45" edge="1">
          <mxGeometry width="50" height="50" relative="1" as="geometry">
            <mxPoint x="480" y="400" as="sourcePoint" />
            <mxPoint x="530" y="350" as="targetPoint" />
          </mxGeometry>
        </mxCell>
        <mxCell id="uEUvTOfzPWWQZXxfegwx-48" value="&lt;u&gt;Software&amp;nbsp;&lt;/u&gt;&lt;div&gt;&lt;u&gt;Development&lt;/u&gt;&lt;/div&gt;" style="text;html=1;align=center;verticalAlign=middle;resizable=0;points=[];autosize=1;strokeColor=none;fillColor=none;" parent="1" vertex="1">
          <mxGeometry x="560" y="130" width="90" height="40" as="geometry" />
        </mxCell>
        <mxCell id="uEUvTOfzPWWQZXxfegwx-49" value="Communication" style="text;html=1;align=center;verticalAlign=middle;resizable=0;points=[];autosize=1;strokeColor=none;fillColor=none;" parent="1" vertex="1">
          <mxGeometry x="545" y="250" width="110" height="30" as="geometry" />
        </mxCell>
        <mxCell id="uEUvTOfzPWWQZXxfegwx-50" value="" style="endArrow=classic;html=1;rounded=0;exitX=0.364;exitY=1;exitDx=0;exitDy=0;exitPerimeter=0;entryX=0.527;entryY=0.067;entryDx=0;entryDy=0;entryPerimeter=0;" parent="1" source="uEUvTOfzPWWQZXxfegwx-48" target="uEUvTOfzPWWQZXxfegwx-49" edge="1">
          <mxGeometry width="50" height="50" relative="1" as="geometry">
            <mxPoint x="480" y="400" as="sourcePoint" />
            <mxPoint x="530" y="350" as="targetPoint" />
          </mxGeometry>
        </mxCell>
        <mxCell id="uEUvTOfzPWWQZXxfegwx-51" value="API" style="text;html=1;align=center;verticalAlign=middle;resizable=0;points=[];autosize=1;strokeColor=none;fillColor=none;" parent="1" vertex="1">
          <mxGeometry x="505" y="330" width="40" height="30" as="geometry" />
        </mxCell>
        <mxCell id="uEUvTOfzPWWQZXxfegwx-52" value="PubSub" style="text;html=1;align=center;verticalAlign=middle;resizable=0;points=[];autosize=1;strokeColor=none;fillColor=none;" parent="1" vertex="1">
          <mxGeometry x="550" y="358" width="70" height="30" as="geometry" />
        </mxCell>
        <mxCell id="uEUvTOfzPWWQZXxfegwx-53" value="RPC" style="text;html=1;align=center;verticalAlign=middle;resizable=0;points=[];autosize=1;strokeColor=none;fillColor=none;" parent="1" vertex="1">
          <mxGeometry x="635" y="328" width="50" height="30" as="geometry" />
        </mxCell>
        <mxCell id="uEUvTOfzPWWQZXxfegwx-54" value="" style="endArrow=classic;html=1;rounded=0;exitX=0.455;exitY=1.1;exitDx=0;exitDy=0;exitPerimeter=0;entryX=0.4;entryY=0;entryDx=0;entryDy=0;entryPerimeter=0;" parent="1" source="uEUvTOfzPWWQZXxfegwx-49" target="uEUvTOfzPWWQZXxfegwx-53" edge="1">
          <mxGeometry width="50" height="50" relative="1" as="geometry">
            <mxPoint x="480" y="400" as="sourcePoint" />
            <mxPoint x="530" y="350" as="targetPoint" />
          </mxGeometry>
        </mxCell>
        <mxCell id="uEUvTOfzPWWQZXxfegwx-55" value="" style="endArrow=classic;html=1;rounded=0;exitX=0.436;exitY=1.067;exitDx=0;exitDy=0;exitPerimeter=0;entryX=0.514;entryY=0.133;entryDx=0;entryDy=0;entryPerimeter=0;" parent="1" source="uEUvTOfzPWWQZXxfegwx-49" target="uEUvTOfzPWWQZXxfegwx-52" edge="1">
          <mxGeometry width="50" height="50" relative="1" as="geometry">
            <mxPoint x="480" y="400" as="sourcePoint" />
            <mxPoint x="530" y="350" as="targetPoint" />
          </mxGeometry>
        </mxCell>
        <mxCell id="uEUvTOfzPWWQZXxfegwx-56" value="" style="endArrow=classic;html=1;rounded=0;entryX=0.475;entryY=0.1;entryDx=0;entryDy=0;entryPerimeter=0;exitX=0.436;exitY=1.1;exitDx=0;exitDy=0;exitPerimeter=0;" parent="1" source="uEUvTOfzPWWQZXxfegwx-49" target="uEUvTOfzPWWQZXxfegwx-51" edge="1">
          <mxGeometry width="50" height="50" relative="1" as="geometry">
            <mxPoint x="540" y="320" as="sourcePoint" />
            <mxPoint x="530" y="350" as="targetPoint" />
          </mxGeometry>
        </mxCell>
        <mxCell id="uEUvTOfzPWWQZXxfegwx-57" value="" style="endArrow=classic;html=1;rounded=0;exitX=1;exitY=0.5;exitDx=0;exitDy=0;entryX=-0.007;entryY=0.533;entryDx=0;entryDy=0;entryPerimeter=0;" parent="1" source="uEUvTOfzPWWQZXxfegwx-2" target="uEUvTOfzPWWQZXxfegwx-48" edge="1">
          <mxGeometry width="50" height="50" relative="1" as="geometry">
            <mxPoint x="480" y="400" as="sourcePoint" />
            <mxPoint x="530" y="350" as="targetPoint" />
          </mxGeometry>
        </mxCell>
        <mxCell id="uEUvTOfzPWWQZXxfegwx-58" value="Client / Server&lt;div&gt;Setup&lt;/div&gt;" style="text;html=1;align=center;verticalAlign=middle;resizable=0;points=[];autosize=1;strokeColor=none;fillColor=none;" parent="1" vertex="1">
          <mxGeometry x="740" y="220" width="100" height="40" as="geometry" />
        </mxCell>
        <mxCell id="uEUvTOfzPWWQZXxfegwx-59" value="" style="endArrow=classic;html=1;rounded=0;exitX=1;exitY=0.525;exitDx=0;exitDy=0;exitPerimeter=0;entryX=0.44;entryY=0;entryDx=0;entryDy=0;entryPerimeter=0;" parent="1" source="uEUvTOfzPWWQZXxfegwx-48" target="uEUvTOfzPWWQZXxfegwx-58" edge="1">
          <mxGeometry width="50" height="50" relative="1" as="geometry">
            <mxPoint x="480" y="400" as="sourcePoint" />
            <mxPoint x="530" y="350" as="targetPoint" />
          </mxGeometry>
        </mxCell>
        <mxCell id="uEUvTOfzPWWQZXxfegwx-61" value="" style="endArrow=classic;html=1;rounded=0;exitX=0.5;exitY=1.05;exitDx=0;exitDy=0;exitPerimeter=0;entryX=0.5;entryY=0;entryDx=0;entryDy=0;" parent="1" source="uEUvTOfzPWWQZXxfegwx-58" target="uEUvTOfzPWWQZXxfegwx-45" edge="1">
          <mxGeometry width="50" height="50" relative="1" as="geometry">
            <mxPoint x="480" y="400" as="sourcePoint" />
            <mxPoint x="530" y="350" as="targetPoint" />
          </mxGeometry>
        </mxCell>
        <mxCell id="uEUvTOfzPWWQZXxfegwx-62" value="" style="endArrow=classic;html=1;rounded=0;exitX=-0.01;exitY=0.5;exitDx=0;exitDy=0;exitPerimeter=0;entryX=1.009;entryY=0.633;entryDx=0;entryDy=0;entryPerimeter=0;" parent="1" source="uEUvTOfzPWWQZXxfegwx-58" target="uEUvTOfzPWWQZXxfegwx-49" edge="1">
          <mxGeometry width="50" height="50" relative="1" as="geometry">
            <mxPoint x="480" y="400" as="sourcePoint" />
            <mxPoint x="530" y="350" as="targetPoint" />
          </mxGeometry>
        </mxCell>
      </root>
    </mxGraphModel>
  </diagram>
</mxfile>
